PathFileType	4	(X/Y/Z)	30_2_31_p1_0-477.trc
DataRate	CameraRate	NumFrames	NumMarkers	Units	OrigDataRate	OrigDataStartFrame	OrigNumFrames
59.0	59.0	6	27	m	59.0	119	478
Frame#	Time	RHip			RKnee			RAnkle			RBigToe			RSmallToe			RHeel			LHip			LKnee			LAnkle			LBigToe			LSmallToe			LHeel			Neck			Head			Nose			RShoulder			RElbow			RWrist			RThumb			RIndex			RPinky			LShoulder			LElbow			LWrist			LThumb			LIndex			LPinky			
		X1	Y1	Z1	X2	Y2	Z2	X3	Y3	Z3	X4	Y4	Z4	X5	Y5	Z5	X6	Y6	Z6	X7	Y7	Z7	X8	Y8	Z8	X9	Y9	Z9	X10	Y10	Z10	X11	Y11	Z11	X12	Y12	Z12	X13	Y13	Z13	X14	Y14	Z14	X15	Y15	Z15	X16	Y16	Z16	X17	Y17	Z17	X18	Y18	Z18	X19	Y19	Z19	X20	Y20	Z20	X21	Y21	Z21	X22	Y22	Z22	X23	Y23	Z23	X24	Y24	Z24	X25	Y25	Z25	X26	Y26	Z26	X27	Y27	Z27	
119	2.016949152542373	0.2850537865329158	0.49289183475023457	0.8704764414066913	0.29552678862032666	0.5263883867526571	1.3406152184118831	0.29447920075239165	0.6024571262087883	1.832738375479584	0.23819787729166822	0.33814670801756536	1.7863507545512114	0.3051017278827117	0.3824939491862968	1.8033274096790755	0.28726303101594985	0.6729593297480667	1.9102666362606286	0.06088908498356794	0.5207848025439064	0.8831670483024195	0.06730712166879413	0.5244226789317593	1.3468675639147032	0.08259238179634767	0.5487225012512766	1.8065968563644843	0.10498589245963659	0.3630943080356593	1.796009930484212	0.04710140204386812	0.39454890015282845	1.8098982879862269	0.11228029688202527	0.6349669136920837	1.8811524507677126	0.1622151309358903	0.5391612025448169	0.23411027631692	0.15698461652892082	0.49387331938128537	-0.01053560362596044	0.16700949765921255	0.45306335914553064	0.10356907147428784	0.3463200179806385	0.5344891842746424	0.3467229566376219	0.35317363075528324	0.36995194920658087	0.5456306717164069	0.23800142141508418	0.14031665991801825	0.5960653607080485	0.13632676098727248	0.03901772649312176	0.5349648412104878	0.10510534775885855	0.025996970321291536	0.5939596296265495	0.15654910129097324	0.029712884785740454	0.6759172953263662	0.0015832800948181998	0.5345743560944161	0.33018982850843476	-0.03858888391316215	0.37101663623983544	0.5472526782892316	0.0725607900030921	0.15474710415830012	0.6198213128010986	0.13896580361588826	0.04662441359465279	0.5647379605638926	0.15463021056580278	0.09140046755461695	0.62676462825744	0.15197975955485923	0.0332099985444472	0.681356480949277
120	2.0338983050847457	0.28586942643647245	0.49292911381583704	0.882744564335322	0.2964441504112173	0.5272768407918967	1.3459188527792816	0.2943634452161062	0.6023248815221067	1.8328030604606815	0.2377570244576604	0.3371674723145649	1.7863001122237714	0.2996893394540989	0.37893745095220205	1.8018541484499675	0.2872822958123102	0.6600560412996684	1.9021168680544542	0.061367003539330126	0.5198429828197718	0.8873191653415146	0.06777729639477326	0.5235242992245338	1.3509038486719178	0.0806018968874715	0.5472406063917654	1.8057701745652077	0.10472714236310217	0.36397515710507927	1.796360034718243	0.04715381487860219	0.3946558462998012	1.8096872870514045	0.11233892375333672	0.6350567057481159	1.8811271898939812	0.1622066975000109	0.5391514984076075	0.2341509673949045	0.16026950735530443	0.48148870974193597	-0.010850015426295365	0.16698922817660564	0.4530879299083896	0.103525040861448	0.3463736674423625	0.5345011274952751	0.3468260236563147	0.35624510818948235	0.35680625863162024	0.5464513157262978	0.23183258336278575	0.14847493306737708	0.6087134824960458	0.1519326269260327	0.0610509292615135	0.5416250077504932	0.11829415336394607	0.01818749534790131	0.5971934597314819	0.14311870958167158	0.05736972809822699	0.6855152979576022	0.0013874039847786707	0.5339559935504461	0.33353018446092036	-0.038527032738702054	0.36986648851081233	0.5600658953160379	0.0697118076911604	0.13152625707836052	0.6283034881776765	0.14932683619451592	0.03925395861807014	0.564863461074795	0.15636058667091185	0.07401044426427689	0.6356341075437869	0.15081563939280085	0.030280484154434833	0.7006196840283236
121	2.0508474576271185	0.28219096627508256	0.5071989742632684	0.8880641124541161	0.29645662496382247	0.527470484448236	1.345898126501087	0.2942892149072249	0.6021547690488209	1.832739750421823	0.2378325351103681	0.3375466081123024	1.786423110882358	0.29972225605474456	0.3792363742720167	1.80188932470745	0.28246468320269186	0.6582682743424887	1.9014350813450458	0.05689659384234981	0.5330575034586659	0.8919069300281586	0.0677436606214247	0.5235026752875128	1.3511349982339536	0.08172505074272521	0.5484280747590421	1.8114865396159343	0.1038752913083939	0.3637796452155885	1.8000766934934034	0.04718388421335242	0.3944132949266023	1.809642170865987	0.11643503802773436	0.6169460045914713	1.8695719672121054	0.1588276304965715	0.5283017732033347	0.23328499738221198	0.16024827950480924	0.4815147616652497	-0.010886323521707425	0.16696304499631523	0.452976939757506	0.10353813309661762	0.3464210815912418	0.5346555585724717	0.34692847818797407	0.3523396257661642	0.3460477991151697	0.5476125553148057	0.2354685013422991	0.14755700940633928	0.6147101820205002	0.15828584428637762	0.06371833347708465	0.5521299441811108	0.13026713241598029	0.005950015441704293	0.5957844834048669	0.15213662486509066	0.019164022761682192	0.6860753319823629	0.0014297425879245054	0.5340321749254926	0.3335004740431489	-0.03867633846986738	0.37073346682009256	0.5566446012327717	0.06643383498367135	0.14202020665413576	0.641712170360667	0.1495630055966114	0.03718662427835139	0.5781089208302328	0.14291475207193724	0.023755320644795748	0.6328841035549914	0.13705578607720537	0.0412511491097597	0.711700003646391
122	2.0677966101694913	0.2748901590175028	0.5198705340884963	0.8963361313524937	0.29642436772773895	0.5273977269358361	1.345980200319895	0.29935756542414726	0.5872300515481138	1.8284855461771001	0.23699397938078884	0.33791979588560384	1.7915218491106806	0.29987773850166355	0.37957231990202145	1.8018717160297948	0.2838563867365005	0.6598471202805359	1.9083244875339218	0.06147118699799183	0.5322878380800534	0.8994250245014198	0.06757115742961002	0.5234777816511778	1.3509649267749377	0.08170461786341955	0.5485818639537545	1.8116769208481451	0.1040467267947395	0.3630753266145529	1.8000563765162574	0.04711419494824589	0.3946143085383972	1.8101591295610988	0.11228368422491597	0.6347115698346317	1.8809062186817875	0.1588030449021732	0.5281196351918175	0.2332357525939817	0.1571336716551514	0.4932660914922376	-0.007647522031309376	0.16691448511242316	0.45295308398088263	0.10349564319516531	0.34365783601632194	0.5472097199279966	0.35235443440284586	0.35669234206159167	0.35676605632448116	0.5539094479820901	0.24361928790434895	0.15693323302263218	0.6272744481176271	0.1664838314873862	0.061535688191002365	0.5630213838156891	0.14376485793175062	-0.005153701670022419	0.6063031223453849	0.16197919539934755	0.05066519923058739	0.6966596968963203	0.0014167057530247806	0.5336454482113556	0.33344272289589955	-0.03651460887078137	0.3796513804051654	0.5625227243527086	0.06582978014717487	0.1413186663423511	0.6485459656542488	0.1491787657944752	0.0305629816782131	0.60002804613517	0.1455623986550126	0.009624106152444108	0.6469690865840461	0.12253412657934992	0.06549075536532804	0.7303902018612478
123	2.0847457627118646	0.26671405100800344	0.5197235574818826	0.8844026522125263	0.29647833753885156	0.5272999723588553	1.3460374125641996	0.2933647092327829	0.6025077363767023	1.8374549833127118	0.237004532693949	0.33765690441836654	1.7914831941187697	0.30310252282006245	0.36414702214896083	1.791549361104311	0.2837210250251792	0.6595232556221003	1.9079140856210473	0.055869165282466944	0.531800353404614	0.8870168526797868	0.067774477767441	0.5233696865573176	1.350689411211379	0.08171880346980653	0.5484129415450436	1.8117245077191897	0.10413036323999261	0.3625645994129181	1.799930197780216	0.0470851471329499	0.39452939642168994	1.8103755474491658	0.10910563255593134	0.6233240790553201	1.8740237484933118	0.1587686913963275	0.52807792724957	0.23323456813935056	0.15694563119993624	0.4937161566320782	-0.010565169784312975	0.1668888322094681	0.45296138633187005	0.10345904695649603	0.3463163406467364	0.5345875229628732	0.3469119805674	0.35393453402479275	0.3701657347160677	0.5567838344038993	0.25688320521272223	0.14850645365687307	0.6366991394280617	0.1700298323953496	0.05888493211926387	0.5753499714115574	0.15322604009609458	-0.004026178301078902	0.6205188400405603	0.16513678264950263	0.04064314931153626	0.7020169498290778	0.0013491115766925096	0.5338845550989146	0.333570610499679	-0.03636037156339896	0.3791490015878382	0.562541048646124	0.06920223621831562	0.15020378999636594	0.6707028169705086	0.1452911261881307	0.022263706834043308	0.6288153724749976	0.1481381462654852	0.008231926445883652	0.6632225673281945	0.11198815303812053	0.07074128801916357	0.7514975770275379
124	2.1016949152542375	0.2672794321271405	0.5083134194165986	0.8764236351230817	0.29649196510451314	0.5273742059971023	1.3462016691845453	0.2954257309677165	0.6032184860632989	1.8386178179402932	0.24061661180573438	0.3484805162783433	1.798656982820175	0.30720774338291623	0.3759391872751598	1.7986946340414007	0.28359698701296454	0.6592360371723938	1.9079808403612017	0.05290802711621977	0.5318085842780178	0.8923213704394463	0.0712485083096712	0.5353788752277927	1.3561213939997803	0.08205050338212518	0.5470362110789144	1.815583929924124	0.10426025115836789	0.36259131990298366	1.8001226776795662	0.04709486144537917	0.3944881676755755	1.8103464084871153	0.1033066653426515	0.6168778357348211	1.8704365284242852	0.1587043672141859	0.5280998686556315	0.23324599415952355	0.15673848818519667	0.49326363321117056	-0.013405692165053261	0.16687042624498954	0.45280616353741343	0.10339118599530742	0.34354137045184435	0.5471533620415955	0.35230709674543564	0.35408955582175866	0.37102167371086175	0.5564357905723941	0.26527859883852145	0.1382816235685088	0.647069179106282	0.16707663510842335	0.05971533817486293	0.6074608474881253	0.15581715042941688	0.03157970279694911	0.6520776452422687	0.16536937374312546	0.05754915734119843	0.7149606732094707	-0.005610568650589512	0.5198503993904998	0.3322162283944684	-0.03662592426320063	0.3791106814989512	0.5648933636522147	0.0608340024899899	0.14483844196162915	0.6779178016287413	0.148261677657636	0.067835603220497	0.6515819735806399	0.14446866128695962	0.033042647175484226	0.6820037307414046	0.11285009649694017	0.06802862705657109	0.7671652183526652
